<svg xmlns="http://www.w3.org/2000/svg" width="802" height="503"><path d="M0 100h750v1H0zm0 80h750v1H0zM0 20h750v1H0zm0 239h750v2H0zm0 81h750v1H0zm0 80h750v1H0zM746 0v250h40a4 4 0 0 1 4 4v12a4 4 0 0 1-4 4h-40v199H0v-1h745V0zm-3 250v20h-41a4 4 0 0 1-4-4v-12a4 4 0 0 1 4-4zM2 257a1 1 0 0 1 1-1h5a1 1 0 0 1 1 1v3H2zm10-3a1 1 0 0 1 1-1h5a1 1 0 0 1 1 1v8a1 1 0 0 1-1 1h-5a1 1 0 0 1-1-1zm3-5h1v21h-1zm7-2a1 1 0 0 1 1-1h5a1 1 0 0 1 1 1v13h-7zm3 13h1v7h-1zm7-16a1 1 0 0 1 1-1h5a1 1 0 0 1 1 1v1a1 1 0 0 1-1 1h-5a1 1 0 0 1-1-1zm3-2h1v15h-1zm10 26h1v21h-1zm7 29a1 1 0 0 1 1-1h5a1 1 0 0 1 1 1v5a1 1 0 0 1-1 1h-5a1 1 0 0 1-1-1zm3-4h1v24h-1zm7 1a1 1 0 0 1 1-1h5a1 1 0 0 1 1 1v11a1 1 0 0 1-1 1h-5a1 1 0 0 1-1-1zm3-11h1v24h-1zm7 11a1 1 0 0 1 1-1h5a1 1 0 0 1 1 1v12a1 1 0 0 1-1 1h-5a1 1 0 0 1-1-1zm6 187a4 4 0 0 1 4-4h40a4 4 0 0 1 4 4v8a4 4 0 0 1-4 4H82a4 4 0 0 1-4-4zm4-184a1 1 0 0 1 1-1h5a1 1 0 0 1 1 1v2a1 1 0 0 1-1 1h-5a1 1 0 0 1-1-1zm3-4h1v11h-1zm7-2a1 1 0 0 1 1-1h5a1 1 0 0 1 1 1v4a1 1 0 0 1-1 1h-5a1 1 0 0 1-1-1zm3-2h1v11h-1zm6-289h1v473h-1zm1 290a1 1 0 0 1 1-1h5a1 1 0 0 1 1 1v2a1 1 0 0 1-1 1h-5a1 1 0 0 1-1-1zm3 2h1v5h-1zm10 1h1v14h-1zm10-17h1v14h-1zm7-23a1 1 0 0 1 1-1h5a1 1 0 0 1 1 1v39a1 1 0 0 1-1 1h-5a1 1 0 0 1-1-1zm3-7h1v48h-1zm7 11a1 1 0 0 1 1-1h5a1 1 0 0 1 1 1v8a1 1 0 0 1-1 1h-5a1 1 0 0 1-1-1zm3 8h1v9h-1zm7-1a1 1 0 0 1 1-1h5a1 1 0 0 1 1 1v2a1 1 0 0 1-1 1h-5a1 1 0 0 1-1-1zm3-15h1v15h-1zm7-2a1 1 0 0 1 1-1h5a1 1 0 0 1 1 1v13h-7zm3-5h1v22h-1zm7 8a1 1 0 0 1 1-1h5a1 1 0 0 1 1 1v8a1 1 0 0 1-1.01 1H173a1 1 0 0 1-1-.93zm3 9h1v5h-1zm7-2a1 1 0 0 1 1-1h5a1 1 0 0 1 1 1v1a1 1 0 0 1-1 1h-5a1 1 0 0 1-1-1zm3-8h1v15h-1zm7 8a1 1 0 0 1 1-1h5a1 1 0 0 1 1 1v3h-7zm3-11h1v11h-1zm7 4a1 1 0 0 1 1-1h5a1 1 0 0 1 1 1v10h-7zm3-8h1v28h-1zm7-19a1 1 0 0 1 1-1h5a1 1 0 0 1 1 1v22a1 1 0 0 1-1 1h-5a1 1 0 0 1-1-1zm3-11h1v35h-1zm7-2a1 1 0 0 1 1-1h5a1 1 0 0 1 1 1v9a1 1 0 0 1-1 1h-5a1 1 0 0 1-1-1zm3 9h1v4h-1zm7-5a1 1 0 0 1 1-1h5a1 1 0 0 1 1 1v11a1 1 0 0 1-1 1h-5a1 1 0 0 1-1-1zm2 267a4 4 0 0 1 4-4h8a4 4 0 0 1 4 4v8a4 4 0 0 1-4 4h-8a4 4 0 0 1-4-4zm1-272h1v24h-1zm6-209h1v473h-1zm1 231a1 1 0 0 1 1-1h5a1 1 0 0 1 1 1v24a1 1 0 0 1-1 1h-5a1 1 0 0 1-1-1zm3-2h1v28h-1zm7 14a1 1 0 0 1 1-1h5a1 1 0 0 1 1 1v12a1 1 0 0 1-1 1h-5a1 1 0 0 1-1-1zm3 12h1v2h-1zm7-15a1 1 0 0 1 1-1h5a1 1 0 0 1 1 1v1a1 1 0 0 1-1 1h-5a1 1 0 0 1-1-1zm3-4h1v14h-1zm7 8a1 1 0 0 1 1-1h5a1 1 0 0 1 1 1v1a1 1 0 0 1-1 1h-5a1 1 0 0 1-1-1zm3-2h1v8h-1zm7 9a1 1 0 0 1 1-1h5a1 1 0 0 1 1 1v11a1 1 0 0 1-1 1h-5a1 1 0 0 1-1-1zm3-12h1v25h-1zm7 21h7v18a1 1 0 0 1-1 1h-5a1 1 0 0 1-1-1zm3 18h1v12h-1zm7 3a1 1 0 0 1 1-1h5a1 1 0 0 1 1 1v4a1 1 0 0 1-1 1h-5a1 1 0 0 1-1-1zm3-2h1v11h-1zm10-3h1v21h-1zm7 11a1 1 0 0 1 1-1h5a1 1 0 0 1 1 1v5a1 1 0 0 1-1 1h-5a1 1 0 0 1-1-1zm3 5h1v8h-1zm7-18a1 1 0 0 1 1-1h5a1 1 0 0 1 1 1v2a1 1 0 0 1-1 1h-5a1 1 0 0 1-1-1zm10-14h7v12a1 1 0 0 1-1 1h-5a1 1 0 0 1-1-1zm3 12h1v2h-1zm7-22a1 1 0 0 1 1-1h5a1 1 0 0 1 1 1v10h-7zm3 9h1v8h-1zm7-22a1 1 0 0 1 1-1h5a1 1 0 0 1 1 1v15a1 1 0 0 1-1 1h-5a1 1 0 0 1-1-1zm3-5h1v25h-1zm7-12a1 1 0 0 1 1-1h5a1 1 0 0 1 1 1v15a1 1 0 0 1-1 1h-5a1 1 0 0 1-1-1zm2 261a4 4 0 0 1 4-4h8a4 4 0 0 1 4 4v8a4 4 0 0 1-4 4h-8a4 4 0 0 1-4-4zm1-246h1v5h-1zm6-235h1v473h-1zm4 222h1v8h-1zm7 2a1 1 0 0 1 1-1h5a1 1 0 0 1 1 1v4a1 1 0 0 1-1 1h-5a1 1 0 0 1-1-1zm3-5h1v11h-1zm7 11a1 1 0 0 1 1-1h5a1 1 0 0 1 1 1v1a1 1 0 0 1-1 1h-5a1 1 0 0 1-1-1zm3-4h1v7h-1zm7 11a1 1 0 0 1 1-1h5a1 1 0 0 1 1 1v4a1 1 0 0 1-1 1h-5a1 1 0 0 1-1-1zm3 4h1v2h-1zm7-1a1 1 0 0 1 1-1h5a1 1 0 0 1 1 1v2a1 1 0 0 1-1 1h-5a1 1 0 0 1-1-1zm10 0a1 1 0 0 1 1-1h5a1 1 0 0 1 1 1v1a1 1 0 0 1-1 1h-5a1 1 0 0 1-1-1zm3 1h1v2h-1zm7-1a1 1 0 0 1 1-1h5a1 1 0 0 1 1 1v9a1 1 0 0 1-1 1h-5a1 1 0 0 1-1-1zm13-1h1v8h-1zm7-26a1 1 0 0 1 1-1h5a1 1 0 0 1 1 1v22a1 1 0 0 1-1 1h-5a1 1 0 0 1-1-1zm3-4h1v31h-1zm7 5a1 1 0 0 1 1-1h5a1 1 0 0 1 1 1v1a1 1 0 0 1-1 1h-5a1 1 0 0 1-1-1zm3-2h1v5h-1zm7-2a1 1 0 0 1 1-1h5a1 1 0 0 1 1 1v5a1 1 0 0 1-1 1h-5a1 1 0 0 1-1-1zm3-15h1v22h-1zm17-12a1 1 0 0 1 1-1h5a1 1 0 0 1 1 1v25a1 1 0 0 1-1 1h-5a1 1 0 0 1-1-1zm3-4h1v31h-1zm7 4a1 1 0 0 1 1-1h5a1 1 0 0 1 1 1v5a1 1 0 0 1-1 1h-5a1 1 0 0 1-1-1zm3-4h1v14h-1zm7 4a1 1 0 0 1 1-1h5a1 1 0 0 1 1 1v1a1 1 0 0 1-1 1h-5a1 1 0 0 1-1-1zm2 298a4 4 0 0 1 4-4h8a4 4 0 0 1 4 4v8a4 4 0 0 1-4 4h-8a4 4 0 0 1-4-4zm1-297h1v2h-1zm6-184h1v473h-1zm1 185h7v1h-7zm10 0h7v1h-7zm10 0h7v1h-7zm10-5a1 1 0 0 1 1-1h5a1 1 0 0 1 1 1v5a1 1 0 0 1-1 1h-5a1 1 0 0 1-1-1zm3-8h1v8h-1zm7 11a1 1 0 0 1 1-1h5a1 1 0 0 1 1 1v11a1 1 0 0 1-1 1h-5a1 1 0 0 1-1-1zm3 11h1v2h-1zm7-1a1 1 0 0 1 1-1h5a1 1 0 0 1 1 1v18a1 1 0 0 1-1 1h-5a1 1 0 0 1-1-1zm3 18h1v2h-1zm7 0a1 1 0 0 1 1-1h5a1 1 0 0 1 1 1v34a1 1 0 0 1-1 1h-5a1 1 0 0 1-1-1zm3-2h1v38h-1zm7 38a1 1 0 0 1 1-1h5a1 1 0 0 1 1 1v4a1 1 0 0 1-1 1h-5a1 1 0 0 1-1-1zm3 4h1v5.5h-1zm7 6a1 1 0 0 1 1-1h5a1 1 0 0 1 1 1v1a1 1 0 0 1-1 1h-5a1 1 0 0 1-1-1zm3-8h1v18h-1zm3 232a4 4 0 0 1 4-4h40a4 4 0 0 1 4 4v8a4 4 0 0 1-4 4h-40a4 4 0 0 1-4-4zm4-224a1 1 0 0 1 1-1h5a1 1 0 0 1 1 1v11a1 1 0 0 1-1 1h-5a1 1 0 0 1-1-1zm3 11h1v2h-1zm7 6a1 1 0 0 1 1-1h5a1 1 0 0 1 1 1v28a1 1 0 0 1-1 1h-5a1 1 0 0 1-1-1zm3 28h1v5h-1zm6-302h1v473h-1zm1 262a1 1 0 0 1 1-1h5a1 1 0 0 1 1 1v31a1 1 0 0 1-1 1h-5a1 1 0 0 1-1-1zM75 306h1v8h-1zM754 17a4 4 0 0 1 4-4h28a4 4 0 0 1 4 4v8a4 4 0 0 1-4 4h-28a4 4 0 0 1-4-4zm0 160a4 4 0 0 1 4-4h28a4 4 0 0 1 4 4v8a4 4 0 0 1-4 4h-28a4 4 0 0 1-4-4zm0 160a4 4 0 0 1 4-4h28a4 4 0 0 1 4 4v8a4 4 0 0 1-4 4h-28a4 4 0 0 1-4-4zm0 80a4 4 0 0 1 4-4h28a4 4 0 0 1 4 4v8a4 4 0 0 1-4 4h-28a4 4 0 0 1-4-4zm0-320a4 4 0 0 1 4-4h28a4 4 0 0 1 4 4v8a4 4 0 0 1-4 4h-28a4 4 0 0 1-4-4z" fill="rgba(132,135,144,.1)"/></svg>