<svg xmlns="http://www.w3.org/2000/svg" width="162" height="54" viewBox="0 0 162 54"><path d="M7.78 47H1.03V36.15h1.79v9.14h4.96V47zm8.69-3.82a3.94 3.94 0 0 1-4 3.97c-2.27 0-4.01-1.75-4.01-3.97a3.94 3.94 0 0 1 4-3.97c2.26 0 4 1.75 4 3.97zm-6.32 0c0 1.36.95 2.41 2.31 2.41 1.35 0 2.3-1.05 2.3-2.41s-.95-2.41-2.3-2.41c-1.36 0-2.3 1.05-2.3 2.41zm15.46 0a3.94 3.94 0 0 1-4 3.97c-2.26 0-4-1.75-4-3.97a3.94 3.94 0 0 1 4-3.97c2.26 0 4 1.75 4 3.97zm-6.3 0c0 1.36.94 2.41 2.3 2.41 1.34 0 2.3-1.05 2.3-2.41s-.96-2.41-2.3-2.41c-1.36 0-2.3 1.05-2.3 2.41zM34.78 47h-2.15l-3.66-3.68V47H27.3V35.54h1.68v6.72l2.92-2.9h2.13l-3.41 3.4L34.79 47zm6.45 0h-1.68v-6.14h-1.6v-1.5h1.6v-1.28c0-1.72 1.14-2.63 2.61-2.63.54 0 .93.07 1.25.18v1.5c-.24-.1-.58-.15-.9-.15-.87 0-1.28.33-1.28 1.3v1.08h2.18v1.5h-2.18V47zm5.48-10.44c0 .63-.48 1.13-1.11 1.13-.61 0-1.13-.5-1.13-1.13 0-.6.52-1.11 1.13-1.11.63 0 1.11.5 1.11 1.11zM50.4 47h-1.68v-7.64h1.68v1.36a2.15 2.15 0 0 1 2.02-1.44 3 3 0 0 1 .65.06v1.73c-.29-.1-.53-.14-.84-.14-.96 0-1.83.81-1.83 2.34V47zm9.17-2.22c0 1.47-1.2 2.37-2.77 2.37-1.36 0-2.52-.52-3.07-1.62l1.24-.88c.3.67 1.06 1.05 1.83 1.05.6 0 1.1-.27 1.1-.8 0-.45-.25-.7-1.17-.99l-.67-.18c-1.35-.37-2.02-1.2-2-2.34 0-1.34 1.2-2.18 2.73-2.18 1.16 0 2.05.44 2.58 1.3l-1.16.88a1.76 1.76 0 0 0-1.45-.78c-.5 0-1.03.25-1.03.72 0 .37.17.67.92.9l.78.23c1.35.41 2.14 1.06 2.14 2.32zm6.2 2.13c-.34.1-.7.17-1.24.17-1.47 0-2.62-.81-2.62-2.54v-3.68h-1.59v-1.5h1.6v-2.12h1.67v2.12h2.19v1.5h-2.19v3.4c0 .97.42 1.3 1.29 1.3.32 0 .65-.04.9-.15v1.5zm6.16-.2h2.09l4.6-10.86h-2.1L71.93 46.7zm15.21.29h1.8v-9.14h3.15v-1.71H84v1.71h3.15V47zm7.93 0v-3.76c0-1.65.85-2.5 1.97-2.5.98 0 1.59.71 1.59 1.94V47h1.68v-4.6c0-1.94-1.15-3.2-2.92-3.2-1 0-1.85.42-2.32 1.2v-4.86h-1.68V47h1.68zm-48.62 0h-1.68v-7.64h1.68V47zm59.46.15c1.6 0 2.8-.67 3.49-1.77l-1.29-.92a2.4 2.4 0 0 1-2.18 1.16c-1.28 0-2.28-.8-2.35-2.07h6c.02-.25.02-.39.02-.55 0-2.46-1.67-3.8-3.69-3.8a3.88 3.88 0 0 0-3.98 3.98 3.82 3.82 0 0 0 3.98 3.97zm-2.26-4.83c.25-1.13 1.2-1.7 2.2-1.7a2 2 0 0 1 2.05 1.7h-4.25zm7.67 4.68h1.69v-3.76c0-1.65.85-2.5 1.97-2.5.97 0 1.59.71 1.59 1.94V47h1.68v-4.6c0-1.94-1.15-3.2-2.92-3.2-1 0-1.85.42-2.32 1.2v-1.04h-1.69V47zM124 47h1.68V35.54h-1.69V47zm7.39.15c1.6 0 2.8-.67 3.48-1.77l-1.28-.92a2.4 2.4 0 0 1-2.19 1.16c-1.28 0-2.27-.8-2.35-2.07h6c.02-.25.02-.39.02-.55 0-2.46-1.66-3.8-3.68-3.8a3.88 3.88 0 0 0-4 3.98 3.82 3.82 0 0 0 4 3.97zm-2.26-4.83c.24-1.13 1.2-1.7 2.2-1.7a2 2 0 0 1 2.04 1.7h-4.24zm10.8 4.83c1.1 0 2.02-.56 2.45-1.17V47h1.68v-7.64h-1.68v1.02a3.05 3.05 0 0 0-2.45-1.17c-2.1 0-3.68 1.78-3.68 3.97 0 2.18 1.59 3.97 3.68 3.97zm.3-1.53c-1.34 0-2.27-1.06-2.27-2.44s.93-2.45 2.28-2.45c1.34 0 2.27 1.07 2.27 2.45 0 1.38-.93 2.44-2.27 2.44zm7.79 4.57v-4.21a3.08 3.08 0 0 0 2.46 1.17c2.09 0 3.68-1.79 3.68-3.97 0-2.19-1.59-3.97-3.68-3.97-1.1 0-2.04.56-2.46 1.17v-1.02h-1.69v10.83h1.69zm2.15-4.57c-1.36 0-2.3-1.06-2.3-2.44s.94-2.45 2.3-2.45c1.34 0 2.28 1.07 2.28 2.45 0 1.38-.94 2.44-2.28 2.44zm8.69 1.08a1.67 1.67 0 1 0 0-3.34 1.67 1.67 0 0 0 0 3.34zM127.37 7.21c0 .99-.83 1.78-1.87 1.78-1 0-1.84-.8-1.84-1.78s.85-1.77 1.84-1.77c1.04 0 1.87.8 1.87 1.77zM127 21h-3V10h3v11zM81.54 9.02c1.04 0 1.87-.8 1.87-1.77 0-.99-.83-1.78-1.87-1.78-1 0-1.84.8-1.84 1.78s.85 1.77 1.84 1.77zM80 21h3V10h-3v11zM43 21h-3V9h-4V6h11v3h-4v12zM50 21l-3 .02V10h3v1.88c.36-1 1.34-1.75 2.53-1.75h.03c.3 0 .6 0 .94.1v2.84a4 4 0 0 0-1.31-.2c-1.38 0-2.19 1-2.19 2.7V21zM88 21h-3V10.01l3-.01v1c.57-.82 1.53-1.21 2.9-1.21 2.57 0 4.1 1.8 4.1 4.45V21h-3v-6c0-1.47-.56-2.66-1.77-2.66-1.36 0-2.23.93-2.23 2.89V21zM117 21l6-15h-3.5l-4 10.5L111 6h-3.5l6.5 15h3zM153.45 21h-2.93l-2.02-6.25-2 6.25h-2.93L140 10h3.14l2.05 7.04 2.17-7.04h2.26l2.2 7.04 2.02-7.04H157l-3.55 11zM58.92 21.24c1.52 0 2.57-.77 3.08-1.47V21h3V10h-3v1.23a3.78 3.78 0 0 0-3.08-1.47c-2.93 0-5.17 2.64-5.17 5.74s2.24 5.74 5.17 5.74zm.64-2.75c-1.68 0-2.78-1.25-2.78-2.99 0-1.74 1.1-3 2.78-3 1.67 0 2.77 1.26 2.77 3s-1.1 3-2.77 3zM75 19.77c-.5.7-1.56 1.47-3.08 1.47-2.93 0-5.17-2.64-5.17-5.74s2.24-5.74 5.17-5.74c1.52 0 2.57.77 3.08 1.47V6h3v15h-3v-1.23zm-5.22-4.27c0 1.74 1.1 3 2.78 3 1.67 0 2.77-1.26 2.77-3s-1.1-3-2.77-3c-1.68 0-2.78 1.26-2.78 3zM102.23 25.82c3.36 0 5.77-1.72 5.77-5.68V10h-3v1.23a3.6 3.6 0 0 0-3.06-1.47c-2.88 0-5.2 2.46-5.2 5.56 0 3.08 2.32 5.68 5.2 5.68a3.8 3.8 0 0 0 3.06-1.58v.74c0 1.76-1.04 3.02-2.82 3.02a4.84 4.84 0 0 1-3.43-1.37l-1.65 2.25c1.25 1.2 3.21 1.76 5.13 1.76zm.35-7.68a2.75 2.75 0 0 1-2.8-2.82c0-1.69 1.28-2.81 2.8-2.81 1.52 0 2.8 1.12 2.8 2.81a2.75 2.75 0 0 1-2.8 2.82zM139.78 18.72a5.96 5.96 0 0 1-5.1 2.47c-3.28 0-5.83-2.27-5.83-5.74a5.62 5.62 0 0 1 5.78-5.75c2.89 0 5.42 1.83 5.42 5.42a6.01 6.01 0 0 1-.04 1.13h-8.24c.18 1.47 1.48 2.19 2.93 2.19 1.39 0 2.33-.62 2.84-1.39l2.24 1.67zm-5.23-6.53c-1.13 0-2.38.57-2.67 1.91h5.15c-.26-1.32-1.36-1.91-2.48-1.91zM12 6H0v6h6v9h6V6zm12 15h-7l6-15h7l-6 15zm-7-9a3 3 0 1 0 0-6 3 3 0 0 0 0 6z" fill="currentColor" id="tradingview-logo"/></svg>