<svg xmlns="http://www.w3.org/2000/svg" width="48" height="48" viewBox="0 0 48 48"><rect width="48" height="48" rx="6"/><mask id="a5xhurd2p" maskUnits="userSpaceOnUse" x="8" y="11" width="33" height="26"><path d="M12.31 22H8.18v-9.86h4.1c1.79 0 2.94.97 2.94 2.46v.02c0 1.06-.8 2-1.86 2.15v.03c1.4.13 2.34 1.1 2.34 2.4v.01c0 1.72-1.28 2.79-3.39 2.79zm1.17-7.16c0-.85-.6-1.33-1.65-1.33h-1.9v2.8h1.6c1.27 0 1.95-.52 1.95-1.45v-.02zm.42 4.25c0-.99-.71-1.5-2.1-1.5H9.95v3.04h1.97c1.29 0 1.99-.53 1.99-1.52v-.02zM23.34 22h-6.39v-9.86h6.39v1.48h-4.62v2.66h4.37v1.43h-4.37v2.8h4.62V22zm8.85-2.84c0 1.84-1.45 3.01-3.85 3.01-2.27 0-3.76-1.07-3.87-2.84l-.01-.1h1.69l.01.08c.13.85 1 1.38 2.24 1.38 1.24 0 2.02-.56 2.02-1.4v-.01c0-.74-.51-1.14-1.78-1.4l-1.06-.22c-1.95-.4-2.9-1.3-2.9-2.78 0-1.74 1.53-2.92 3.66-2.92 2.15 0 3.56 1.14 3.66 2.83v.11h-1.68l-.02-.08c-.11-.86-.87-1.37-1.98-1.37-1.15 0-1.87.55-1.87 1.33 0 .7.54 1.12 1.73 1.36l1.06.22c2.05.42 2.95 1.26 2.95 2.8zM37.41 22h-1.76v-8.38H32.7v-1.48h7.65v1.48h-2.94V22zM17.19 35.14V36h-5.11v-.67l2.73-2.84c1.04-1.1 1.29-1.51 1.29-2.16 0-.8-.6-1.37-1.45-1.37-.97 0-1.69.67-1.69 1.5v.03h-.93v-.03c0-1.35 1.16-2.34 2.6-2.34 1.4 0 2.43.94 2.43 2.15v.02c0 .84-.39 1.48-1.81 2.94l-1.84 1.89v.02h3.78zm7.07-3.01c0 2.46-1.07 4-2.85 4s-2.84-1.54-2.84-4v-.01c0-2.46 1.06-4 2.84-4 1.78 0 2.85 1.54 2.85 4zm-4.72 0c0 1.94.69 3.16 1.87 3.16 1.18 0 1.88-1.22 1.88-3.16v-.01c0-1.95-.7-3.15-1.88-3.15s-1.87 1.2-1.87 3.15zm11.25 3.01V36h-5.12v-.67l2.73-2.84c1.05-1.1 1.29-1.51 1.29-2.16 0-.8-.6-1.37-1.44-1.37-.97 0-1.7.67-1.7 1.5v.03h-.93v-.03c0-1.35 1.16-2.34 2.6-2.34 1.41 0 2.44.94 2.44 2.15v.02c0 .84-.4 1.48-1.82 2.94L27 35.12v.02h3.79zm4.42.86h-.93v-6.72h-.02L32.2 30.7v-.97l2.06-1.48h.94V36z" fill="#fff"/></mask><g mask="url(#a5xhurd2p)"><g filter="url(#b5xhurd2p)"><path fill="#F4B000" d="M27.67-18l35.67 35.67-35.67 35.68L-8 17.67z"/></g><g filter="url(#c5xhurd2p)"><path fill="#FF6D00" d="M-4.02 1l34.98 34.98-34.98 34.98L-39 35.98z"/></g><g filter="url(#d5xhurd2p)"><path fill="#6800F9" d="M11.08 6l18.08 18.08-18.08 18.08L-7 24.08z"/></g><g filter="url(#e5xhurd2p)"><path fill="#5200FF" d="M16.16 20l16.17 16.16-16.17 16.17L0 36.16z"/></g><g style="mix-blend-mode:screen" filter="url(#f5xhurd2p)"><path fill="#FF3D00" d="M38.56-6l17.57 17.56-17.57 17.57L21 11.56z"/></g></g><defs><filter id="b5xhurd2p" x="-32" y="-42" width="119.34" height="119.34" color-interpolation-filters="sRGB"><feGaussianBlur stdDeviation="12"/></filter><filter id="c5xhurd2p" x="-63.01" y="-23" width="117.96" height="117.96" color-interpolation-filters="sRGB"><feGaussianBlur stdDeviation="12"/></filter><filter id="d5xhurd2p" x="-31" y="-18" width="84.16" height="84.16" color-interpolation-filters="sRGB"><feGaussianBlur stdDeviation="12"/></filter><filter id="e5xhurd2p" x="-24" y="-4" width="80.33" height="80.33" color-interpolation-filters="sRGB"><feGaussianBlur stdDeviation="12"/></filter><filter id="f5xhurd2p" x="-3" y="-30" width="83.13" height="83.13" color-interpolation-filters="sRGB"><feGaussianBlur stdDeviation="12"/></filter></defs></svg>