<svg xmlns="http://www.w3.org/2000/svg" width="28" height="28" viewBox="0 0 28 28"><path fill-rule="evenodd" d="M9.96 4h8.08A5.96 5.96 0 0 1 24 9.96v8.08A5.96 5.96 0 0 1 18.04 24H9.96A5.96 5.96 0 0 1 4 18.04V9.96A5.96 5.96 0 0 1 9.96 4zm8.08 17.99A3.95 3.95 0 0 0 22 18.04V9.96A3.95 3.95 0 0 0 18.04 6H9.96A3.95 3.95 0 0 0 6 9.96v8.08A3.95 3.95 0 0 0 9.96 22h8.08zm1.14-11.88a1.24 1.24 0 1 0 0-2.48 1.24 1.24 0 0 0 0 2.48zM17 14a3 3 0 1 1-6 0 3 3 0 0 1 6 0zm2 0a5 5 0 1 1-10 0 5 5 0 0 1 10 0z" fill="currentColor" id="instagram"/></svg>