<svg width="28" height="28" viewBox="0 0 28 28" xmlns="http://www.w3.org/2000/svg"><path d="M14 24a10 10 0 1 1 0-20 10 10 0 0 1 0 20zm6.67-10a1.46 1.46 0 0 0-2.47-1 7.12 7.12 0 0 0-3.85-1.23L15 8.65l2.14.45a1 1 0 1 0 .13-.61L14.82 8a.31.31 0 0 0-.37.24l-.74 3.47a7.14 7.14 0 0 0-3.9 1.23 1.46 1.46 0 0 0-2.44.83 1.46 1.46 0 0 0 .83 1.56 2.87 2.87 0 0 0 0 .44c0 2.24 2.61 4.06 5.83 4.06s5.83-1.82 5.83-4.06a2.86 2.86 0 0 0 0-.44 1.46 1.46 0 0 0 .81-1.33zm-10 1a1 1 0 1 1 2 0 1 1 0 0 1-2 0zm5.81 2.75a3.84 3.84 0 0 1-2.47.77 3.84 3.84 0 0 1-2.47-.77.27.27 0 0 1 .38-.38A3.27 3.27 0 0 0 14 18a3.28 3.28 0 0 0 2.09-.61.28.28 0 0 1 .32-.07.28.28 0 0 1 .14.38.28.28 0 0 1-.07.09v-.04zm-.18-1.71a1 1 0 1 1 1-1 1 1 0 0 1-1.01 1.04l.01-.04z" fill="currentColor" id="reddit"/></svg>